<mxfile host="Electron" modified="2024-04-09T17:34:30.837Z" agent="Mozilla/5.0 (Windows NT 10.0; Win64; x64) AppleWebKit/537.36 (KHTML, like Gecko) draw.io/22.0.3 Chrome/114.0.5735.289 Electron/25.8.4 Safari/537.36" etag="KQDek4tczH4v-LPpsXf7" version="22.0.3" type="device">
  <diagram name="第 1 页" id="Gc1PI-fwBuo2qW1nzUOi">
    <mxGraphModel dx="863" dy="505" grid="1" gridSize="10" guides="1" tooltips="1" connect="1" arrows="1" fold="1" page="1" pageScale="1" pageWidth="827" pageHeight="1169" math="1" shadow="0">
      <root>
        <mxCell id="0" />
        <mxCell id="1" parent="0" />
        <mxCell id="Vg8Ethz-sG3YUk_RrEdB-27" value="" style="rounded=0;whiteSpace=wrap;html=1;fillColor=default;strokeColor=none;" vertex="1" parent="1">
          <mxGeometry x="180" y="70" width="530" height="550" as="geometry" />
        </mxCell>
        <mxCell id="mxhsJ3KRXKB8JYVtl0XZ-32" value="" style="rounded=0;whiteSpace=wrap;html=1;dashed=1;fillColor=#f5f5f5;strokeColor=#666666;fontColor=#333333;" parent="1" vertex="1">
          <mxGeometry x="200" y="360" width="490" height="30" as="geometry" />
        </mxCell>
        <mxCell id="aoYNDOdQS_iStpk5486y-12" style="edgeStyle=orthogonalEdgeStyle;rounded=0;orthogonalLoop=1;jettySize=auto;html=1;entryX=0.5;entryY=0;entryDx=0;entryDy=0;" parent="1" source="mxhsJ3KRXKB8JYVtl0XZ-5" target="mxhsJ3KRXKB8JYVtl0XZ-4" edge="1">
          <mxGeometry relative="1" as="geometry" />
        </mxCell>
        <mxCell id="mxhsJ3KRXKB8JYVtl0XZ-5" value="original input \(X\)" style="rounded=0;whiteSpace=wrap;html=1;fillColor=#dae8fc;strokeColor=#6c8ebf;" parent="1" vertex="1">
          <mxGeometry x="397.5" y="90" width="95" height="30" as="geometry" />
        </mxCell>
        <mxCell id="mxhsJ3KRXKB8JYVtl0XZ-83" style="edgeStyle=orthogonalEdgeStyle;rounded=0;orthogonalLoop=1;jettySize=auto;html=1;" parent="1" source="mxhsJ3KRXKB8JYVtl0XZ-16" target="mxhsJ3KRXKB8JYVtl0XZ-80" edge="1">
          <mxGeometry relative="1" as="geometry" />
        </mxCell>
        <mxCell id="mxhsJ3KRXKB8JYVtl0XZ-33" value="" style="endArrow=classic;html=1;rounded=0;" parent="1" source="mxhsJ3KRXKB8JYVtl0XZ-32" target="mxhsJ3KRXKB8JYVtl0XZ-34" edge="1">
          <mxGeometry width="50" height="50" relative="1" as="geometry">
            <mxPoint x="540" y="720" as="sourcePoint" />
            <mxPoint x="495" y="640" as="targetPoint" />
          </mxGeometry>
        </mxCell>
        <mxCell id="mxhsJ3KRXKB8JYVtl0XZ-121" style="edgeStyle=orthogonalEdgeStyle;rounded=0;orthogonalLoop=1;jettySize=auto;html=1;" parent="1" source="mxhsJ3KRXKB8JYVtl0XZ-34" target="mxhsJ3KRXKB8JYVtl0XZ-112" edge="1">
          <mxGeometry relative="1" as="geometry" />
        </mxCell>
        <mxCell id="mxhsJ3KRXKB8JYVtl0XZ-34" value="Decoder&amp;nbsp;\(\mathcal{D}\)" style="rounded=1;whiteSpace=wrap;html=1;fillColor=#fff2cc;strokeColor=#d6b656;" parent="1" vertex="1">
          <mxGeometry x="407.5" y="410" width="75" height="20" as="geometry" />
        </mxCell>
        <mxCell id="mxhsJ3KRXKB8JYVtl0XZ-54" style="edgeStyle=orthogonalEdgeStyle;rounded=0;orthogonalLoop=1;jettySize=auto;html=1;" parent="1" source="mxhsJ3KRXKB8JYVtl0XZ-52" target="mxhsJ3KRXKB8JYVtl0XZ-55" edge="1">
          <mxGeometry relative="1" as="geometry">
            <mxPoint x="455" y="630" as="targetPoint" />
          </mxGeometry>
        </mxCell>
        <mxCell id="mxhsJ3KRXKB8JYVtl0XZ-52" value="$$\mathcal{F}_{\text{Fc}}$$" style="rounded=1;whiteSpace=wrap;html=1;fillColor=#dae8fc;strokeColor=#6c8ebf;" parent="1" vertex="1">
          <mxGeometry x="415" y="540" width="60" height="20" as="geometry" />
        </mxCell>
        <mxCell id="mxhsJ3KRXKB8JYVtl0XZ-62" value="" style="group" parent="1" vertex="1" connectable="0">
          <mxGeometry x="325" y="230" width="110" height="30" as="geometry" />
        </mxCell>
        <mxCell id="mxhsJ3KRXKB8JYVtl0XZ-63" value="" style="rounded=0;whiteSpace=wrap;html=1;dashed=1;fillColor=#f5f5f5;fontColor=#333333;strokeColor=#666666;container=0;" parent="mxhsJ3KRXKB8JYVtl0XZ-62" vertex="1">
          <mxGeometry width="110" height="30" as="geometry" />
        </mxCell>
        <mxCell id="mxhsJ3KRXKB8JYVtl0XZ-66" value="&lt;b&gt;&lt;font style=&quot;font-size: 14px;&quot;&gt;,...,&lt;/font&gt;&lt;/b&gt;" style="rounded=0;whiteSpace=wrap;html=1;strokeColor=none;fillColor=#f5f5f5;fontColor=#333333;container=0;" parent="mxhsJ3KRXKB8JYVtl0XZ-62" vertex="1">
          <mxGeometry x="40" y="5" width="30" height="20" as="geometry" />
        </mxCell>
        <mxCell id="mxhsJ3KRXKB8JYVtl0XZ-64" value="$$X_1$$" style="rounded=0;whiteSpace=wrap;html=1;fillColor=#e1d5e7;strokeColor=#9673a6;container=0;" parent="mxhsJ3KRXKB8JYVtl0XZ-62" vertex="1">
          <mxGeometry x="10" y="5" width="30" height="20" as="geometry" />
        </mxCell>
        <mxCell id="mxhsJ3KRXKB8JYVtl0XZ-65" value="$$X_k$$" style="rounded=0;whiteSpace=wrap;html=1;fillColor=#e1d5e7;strokeColor=#9673a6;container=0;" parent="mxhsJ3KRXKB8JYVtl0XZ-62" vertex="1">
          <mxGeometry x="70" y="5" width="30" height="20" as="geometry" />
        </mxCell>
        <mxCell id="mxhsJ3KRXKB8JYVtl0XZ-55" value="$$\hat{Z}$$" style="rounded=0;whiteSpace=wrap;html=1;fillColor=#dae8fc;strokeColor=#6c8ebf;" parent="1" vertex="1">
          <mxGeometry x="415" y="580" width="60" height="20" as="geometry" />
        </mxCell>
        <mxCell id="mxhsJ3KRXKB8JYVtl0XZ-84" value="" style="endArrow=classic;html=1;rounded=0;" parent="1" source="mxhsJ3KRXKB8JYVtl0XZ-11" target="mxhsJ3KRXKB8JYVtl0XZ-15" edge="1">
          <mxGeometry width="50" height="50" relative="1" as="geometry">
            <mxPoint x="200" y="200" as="sourcePoint" />
            <mxPoint x="250" y="150" as="targetPoint" />
          </mxGeometry>
        </mxCell>
        <mxCell id="mxhsJ3KRXKB8JYVtl0XZ-85" value="" style="endArrow=classic;html=1;rounded=0;" parent="1" source="mxhsJ3KRXKB8JYVtl0XZ-64" target="mxhsJ3KRXKB8JYVtl0XZ-24" edge="1">
          <mxGeometry width="50" height="50" relative="1" as="geometry">
            <mxPoint x="240" y="290" as="sourcePoint" />
            <mxPoint x="290" y="240" as="targetPoint" />
          </mxGeometry>
        </mxCell>
        <mxCell id="mxhsJ3KRXKB8JYVtl0XZ-86" value="" style="endArrow=classic;html=1;rounded=0;" parent="1" source="mxhsJ3KRXKB8JYVtl0XZ-17" target="mxhsJ3KRXKB8JYVtl0XZ-77" edge="1">
          <mxGeometry width="50" height="50" relative="1" as="geometry">
            <mxPoint x="553" y="440" as="sourcePoint" />
            <mxPoint x="603" y="390" as="targetPoint" />
          </mxGeometry>
        </mxCell>
        <mxCell id="mxhsJ3KRXKB8JYVtl0XZ-87" value="" style="endArrow=classic;html=1;rounded=0;" parent="1" source="mxhsJ3KRXKB8JYVtl0XZ-4" target="mxhsJ3KRXKB8JYVtl0XZ-11" edge="1">
          <mxGeometry width="50" height="50" relative="1" as="geometry">
            <mxPoint x="407" y="190" as="sourcePoint" />
            <mxPoint x="490.5" y="210" as="targetPoint" />
          </mxGeometry>
        </mxCell>
        <mxCell id="mxhsJ3KRXKB8JYVtl0XZ-11" value="Encoder \(\mathcal{E}\)" style="rounded=1;whiteSpace=wrap;html=1;fillColor=#ffe6cc;strokeColor=#d79b00;" parent="1" vertex="1">
          <mxGeometry x="472" y="190" width="76" height="20" as="geometry" />
        </mxCell>
        <mxCell id="mxhsJ3KRXKB8JYVtl0XZ-101" value="" style="endArrow=classic;html=1;rounded=0;" parent="1" source="mxhsJ3KRXKB8JYVtl0XZ-24" target="mxhsJ3KRXKB8JYVtl0XZ-28" edge="1">
          <mxGeometry width="50" height="50" relative="1" as="geometry">
            <mxPoint x="270" y="431" as="sourcePoint" />
            <mxPoint x="320" y="381" as="targetPoint" />
          </mxGeometry>
        </mxCell>
        <mxCell id="mxhsJ3KRXKB8JYVtl0XZ-124" value="" style="endArrow=classic;html=1;rounded=0;" parent="1" source="mxhsJ3KRXKB8JYVtl0XZ-4" target="mxhsJ3KRXKB8JYVtl0XZ-63" edge="1">
          <mxGeometry width="50" height="50" relative="1" as="geometry">
            <mxPoint x="470" y="190" as="sourcePoint" />
            <mxPoint x="481" y="210" as="targetPoint" />
          </mxGeometry>
        </mxCell>
        <mxCell id="aoYNDOdQS_iStpk5486y-1" value="" style="group" parent="1" vertex="1" connectable="0">
          <mxGeometry x="390" y="140" width="110" height="30" as="geometry" />
        </mxCell>
        <mxCell id="mxhsJ3KRXKB8JYVtl0XZ-4" value="" style="rounded=0;whiteSpace=wrap;html=1;dashed=1;fillColor=#f5f5f5;fontColor=#333333;strokeColor=#666666;container=0;" parent="aoYNDOdQS_iStpk5486y-1" vertex="1">
          <mxGeometry width="110" height="30" as="geometry" />
        </mxCell>
        <mxCell id="mxhsJ3KRXKB8JYVtl0XZ-8" value="&lt;b&gt;&lt;font style=&quot;font-size: 14px;&quot;&gt;,...,&lt;/font&gt;&lt;/b&gt;" style="rounded=0;whiteSpace=wrap;html=1;strokeColor=none;fillColor=#f5f5f5;fontColor=#333333;container=0;" parent="aoYNDOdQS_iStpk5486y-1" vertex="1">
          <mxGeometry x="40" y="5" width="30" height="20" as="geometry" />
        </mxCell>
        <mxCell id="mxhsJ3KRXKB8JYVtl0XZ-6" value="$$X_1$$" style="rounded=0;whiteSpace=wrap;html=1;fillColor=#e1d5e7;strokeColor=#9673a6;container=0;" parent="aoYNDOdQS_iStpk5486y-1" vertex="1">
          <mxGeometry x="10" y="5" width="30" height="20" as="geometry" />
        </mxCell>
        <mxCell id="mxhsJ3KRXKB8JYVtl0XZ-7" value="$$X_k$$" style="rounded=0;whiteSpace=wrap;html=1;fillColor=#e1d5e7;strokeColor=#9673a6;container=0;" parent="aoYNDOdQS_iStpk5486y-1" vertex="1">
          <mxGeometry x="70" y="5" width="30" height="20" as="geometry" />
        </mxCell>
        <mxCell id="aoYNDOdQS_iStpk5486y-5" style="edgeStyle=orthogonalEdgeStyle;rounded=0;orthogonalLoop=1;jettySize=auto;html=1;" parent="1" source="mxhsJ3KRXKB8JYVtl0XZ-65" target="mxhsJ3KRXKB8JYVtl0XZ-72" edge="1">
          <mxGeometry relative="1" as="geometry" />
        </mxCell>
        <mxCell id="aoYNDOdQS_iStpk5486y-6" style="edgeStyle=orthogonalEdgeStyle;rounded=0;orthogonalLoop=1;jettySize=auto;html=1;" parent="1" source="mxhsJ3KRXKB8JYVtl0XZ-73" target="mxhsJ3KRXKB8JYVtl0XZ-90" edge="1">
          <mxGeometry relative="1" as="geometry" />
        </mxCell>
        <mxCell id="aoYNDOdQS_iStpk5486y-7" style="edgeStyle=orthogonalEdgeStyle;rounded=0;orthogonalLoop=1;jettySize=auto;html=1;" parent="1" source="mxhsJ3KRXKB8JYVtl0XZ-81" target="mxhsJ3KRXKB8JYVtl0XZ-91" edge="1">
          <mxGeometry relative="1" as="geometry" />
        </mxCell>
        <mxCell id="aoYNDOdQS_iStpk5486y-8" value="" style="group" parent="1" vertex="1" connectable="0">
          <mxGeometry x="390" y="450" width="110" height="30" as="geometry" />
        </mxCell>
        <mxCell id="mxhsJ3KRXKB8JYVtl0XZ-112" value="" style="rounded=0;whiteSpace=wrap;html=1;dashed=1;fillColor=#f5f5f5;strokeColor=#666666;fontColor=#333333;" parent="aoYNDOdQS_iStpk5486y-8" vertex="1">
          <mxGeometry width="110" height="30" as="geometry" />
        </mxCell>
        <mxCell id="mxhsJ3KRXKB8JYVtl0XZ-113" value="&lt;b&gt;&lt;font style=&quot;font-size: 14px;&quot;&gt;,...,&lt;/font&gt;&lt;/b&gt;" style="rounded=0;whiteSpace=wrap;html=1;strokeColor=none;fillColor=#f5f5f5;fontColor=#333333;container=0;" parent="aoYNDOdQS_iStpk5486y-8" vertex="1">
          <mxGeometry x="40" y="5" width="30" height="20" as="geometry" />
        </mxCell>
        <mxCell id="mxhsJ3KRXKB8JYVtl0XZ-114" value="$$\hat{Y_1}$$" style="rounded=0;whiteSpace=wrap;html=1;fillColor=#fff2cc;strokeColor=#d6b656;" parent="aoYNDOdQS_iStpk5486y-8" vertex="1">
          <mxGeometry x="10" y="5" width="30" height="20" as="geometry" />
        </mxCell>
        <mxCell id="mxhsJ3KRXKB8JYVtl0XZ-115" value="$$\hat{Y_k}$$" style="rounded=0;whiteSpace=wrap;html=1;fillColor=#fff2cc;strokeColor=#d6b656;" parent="aoYNDOdQS_iStpk5486y-8" vertex="1">
          <mxGeometry x="70" y="5" width="30" height="20" as="geometry" />
        </mxCell>
        <mxCell id="aoYNDOdQS_iStpk5486y-9" value="" style="group" parent="1" vertex="1" connectable="0">
          <mxGeometry x="455" y="230" width="110" height="30" as="geometry" />
        </mxCell>
        <mxCell id="mxhsJ3KRXKB8JYVtl0XZ-15" value="" style="rounded=0;whiteSpace=wrap;html=1;fillColor=#f5f5f5;fontColor=#333333;strokeColor=#666666;dashed=1;" parent="aoYNDOdQS_iStpk5486y-9" vertex="1">
          <mxGeometry width="110" height="30" as="geometry" />
        </mxCell>
        <mxCell id="mxhsJ3KRXKB8JYVtl0XZ-16" value="$$X_{k+1}$$" style="rounded=0;whiteSpace=wrap;html=1;fillColor=#ffe6cc;strokeColor=#d79b00;" parent="aoYNDOdQS_iStpk5486y-9" vertex="1">
          <mxGeometry x="10" y="5" width="30" height="20" as="geometry" />
        </mxCell>
        <mxCell id="mxhsJ3KRXKB8JYVtl0XZ-17" value="$$X_{k+r}$$" style="rounded=0;whiteSpace=wrap;html=1;fillColor=#ffe6cc;strokeColor=#d79b00;" parent="aoYNDOdQS_iStpk5486y-9" vertex="1">
          <mxGeometry x="70" y="5" width="30" height="20" as="geometry" />
        </mxCell>
        <mxCell id="mxhsJ3KRXKB8JYVtl0XZ-126" value="&lt;b&gt;&lt;font style=&quot;font-size: 14px;&quot;&gt;,...,&lt;/font&gt;&lt;/b&gt;" style="rounded=0;whiteSpace=wrap;html=1;strokeColor=none;fillColor=#f5f5f5;fontColor=#333333;container=0;" parent="aoYNDOdQS_iStpk5486y-9" vertex="1">
          <mxGeometry x="45" y="5" width="20" height="20" as="geometry" />
        </mxCell>
        <mxCell id="oDz6JpOldfuqjzSNUi1K-1" value="$$\hat{Y}$$" style="rounded=0;whiteSpace=wrap;html=1;fillColor=#dae8fc;strokeColor=#6c8ebf;" parent="1" vertex="1">
          <mxGeometry x="414" y="500" width="60" height="20" as="geometry" />
        </mxCell>
        <mxCell id="oDz6JpOldfuqjzSNUi1K-2" value="" style="endArrow=classic;html=1;rounded=0;" parent="1" source="mxhsJ3KRXKB8JYVtl0XZ-112" target="oDz6JpOldfuqjzSNUi1K-1" edge="1">
          <mxGeometry width="50" height="50" relative="1" as="geometry">
            <mxPoint x="320" y="560" as="sourcePoint" />
            <mxPoint x="370" y="510" as="targetPoint" />
          </mxGeometry>
        </mxCell>
        <mxCell id="oDz6JpOldfuqjzSNUi1K-3" value="" style="endArrow=classic;html=1;rounded=0;" parent="1" source="oDz6JpOldfuqjzSNUi1K-1" target="mxhsJ3KRXKB8JYVtl0XZ-52" edge="1">
          <mxGeometry width="50" height="50" relative="1" as="geometry">
            <mxPoint x="455" y="490" as="sourcePoint" />
            <mxPoint x="454" y="510" as="targetPoint" />
          </mxGeometry>
        </mxCell>
        <mxCell id="mxhsJ3KRXKB8JYVtl0XZ-74" value="" style="group" parent="1" vertex="1" connectable="0">
          <mxGeometry x="200" y="281" width="60" height="40" as="geometry" />
        </mxCell>
        <mxCell id="mxhsJ3KRXKB8JYVtl0XZ-24" value="&lt;font style=&quot;font-size: 10px;&quot;&gt;Device 1&lt;/font&gt;" style="rounded=1;whiteSpace=wrap;html=1;verticalAlign=top;dashed=1;strokeColor=#666666;" parent="mxhsJ3KRXKB8JYVtl0XZ-74" vertex="1">
          <mxGeometry width="60" height="40" as="geometry" />
        </mxCell>
        <mxCell id="mxhsJ3KRXKB8JYVtl0XZ-23" value="$$\mathcal{F}_{\text{Conv}}$$" style="rounded=1;whiteSpace=wrap;html=1;fillColor=#dae8fc;strokeColor=#6c8ebf;" parent="mxhsJ3KRXKB8JYVtl0XZ-74" vertex="1">
          <mxGeometry y="24" width="60" height="16" as="geometry" />
        </mxCell>
        <mxCell id="mxhsJ3KRXKB8JYVtl0XZ-77" value="&lt;font style=&quot;font-size: 10px;&quot;&gt;Device k+r&lt;/font&gt;" style="rounded=1;whiteSpace=wrap;html=1;verticalAlign=top;dashed=1;strokeColor=#666666;" parent="1" vertex="1">
          <mxGeometry x="630" y="281" width="60" height="40" as="geometry" />
        </mxCell>
        <mxCell id="Vg8Ethz-sG3YUk_RrEdB-20" style="edgeStyle=orthogonalEdgeStyle;rounded=0;orthogonalLoop=1;jettySize=auto;html=1;" edge="1" parent="1" source="mxhsJ3KRXKB8JYVtl0XZ-78" target="Vg8Ethz-sG3YUk_RrEdB-11">
          <mxGeometry relative="1" as="geometry" />
        </mxCell>
        <mxCell id="mxhsJ3KRXKB8JYVtl0XZ-78" value="$$\mathcal{F}_{\text{Conv}}$$" style="rounded=1;whiteSpace=wrap;html=1;fillColor=#dae8fc;strokeColor=#6c8ebf;" parent="1" vertex="1">
          <mxGeometry x="630" y="305" width="60" height="16" as="geometry" />
        </mxCell>
        <mxCell id="mxhsJ3KRXKB8JYVtl0XZ-75" value="" style="group" parent="1" vertex="1" connectable="0">
          <mxGeometry x="380" y="281" width="60" height="40" as="geometry" />
        </mxCell>
        <mxCell id="mxhsJ3KRXKB8JYVtl0XZ-72" value="&lt;font style=&quot;font-size: 10px;&quot;&gt;Device k&lt;/font&gt;" style="rounded=1;whiteSpace=wrap;html=1;verticalAlign=top;dashed=1;strokeColor=#666666;" parent="mxhsJ3KRXKB8JYVtl0XZ-75" vertex="1">
          <mxGeometry width="60" height="40" as="geometry" />
        </mxCell>
        <mxCell id="mxhsJ3KRXKB8JYVtl0XZ-73" value="$$\mathcal{F}_{\text{Conv}}$$" style="rounded=1;whiteSpace=wrap;html=1;fillColor=#dae8fc;strokeColor=#6c8ebf;" parent="mxhsJ3KRXKB8JYVtl0XZ-75" vertex="1">
          <mxGeometry y="24" width="60" height="16" as="geometry" />
        </mxCell>
        <mxCell id="mxhsJ3KRXKB8JYVtl0XZ-88" value="&lt;b&gt;&lt;font style=&quot;font-size: 14px;&quot;&gt;,...,&lt;/font&gt;&lt;/b&gt;" style="rounded=0;whiteSpace=wrap;html=1;container=0;strokeColor=none;" parent="1" vertex="1">
          <mxGeometry x="264" y="286" width="20" height="20" as="geometry" />
        </mxCell>
        <mxCell id="mxhsJ3KRXKB8JYVtl0XZ-89" value="&lt;b&gt;&lt;font style=&quot;font-size: 14px;&quot;&gt;,...,&lt;/font&gt;&lt;/b&gt;" style="rounded=0;whiteSpace=wrap;html=1;container=0;strokeColor=none;" parent="1" vertex="1">
          <mxGeometry x="514" y="286" width="20" height="20" as="geometry" />
        </mxCell>
        <mxCell id="mxhsJ3KRXKB8JYVtl0XZ-80" value="&lt;font style=&quot;font-size: 10px;&quot;&gt;Device k+1&lt;/font&gt;" style="rounded=1;whiteSpace=wrap;html=1;verticalAlign=top;dashed=1;strokeColor=#666666;" parent="1" vertex="1">
          <mxGeometry x="450" y="281" width="60" height="40" as="geometry" />
        </mxCell>
        <mxCell id="mxhsJ3KRXKB8JYVtl0XZ-81" value="$$\mathcal{F}_{\text{Conv}}$$" style="rounded=1;whiteSpace=wrap;html=1;fillColor=#dae8fc;strokeColor=#6c8ebf;" parent="1" vertex="1">
          <mxGeometry x="450" y="305" width="60" height="16" as="geometry" />
        </mxCell>
        <mxCell id="Vg8Ethz-sG3YUk_RrEdB-2" value="&lt;font style=&quot;font-size: 8px;&quot;&gt;Failed Device&lt;/font&gt;" style="rounded=1;whiteSpace=wrap;html=1;verticalAlign=top;dashed=1;strokeColor=#b85450;fillColor=#f8cecc;" vertex="1" parent="1">
          <mxGeometry x="290" y="280" width="60" height="40" as="geometry" />
        </mxCell>
        <mxCell id="Vg8Ethz-sG3YUk_RrEdB-4" value="&lt;b&gt;&lt;font style=&quot;font-size: 14px;&quot;&gt;,...,&lt;/font&gt;&lt;/b&gt;" style="rounded=0;whiteSpace=wrap;html=1;container=0;strokeColor=none;" vertex="1" parent="1">
          <mxGeometry x="355" y="285" width="20" height="20" as="geometry" />
        </mxCell>
        <mxCell id="Vg8Ethz-sG3YUk_RrEdB-3" value="$$\mathcal{F}_{\text{Conv}}$$" style="rounded=1;whiteSpace=wrap;html=1;fillColor=#dae8fc;strokeColor=#6c8ebf;" vertex="1" parent="1">
          <mxGeometry x="290" y="304" width="60" height="16" as="geometry" />
        </mxCell>
        <mxCell id="Vg8Ethz-sG3YUk_RrEdB-5" value="&lt;b&gt;&lt;font style=&quot;font-size: 14px;&quot;&gt;,...,&lt;/font&gt;&lt;/b&gt;" style="rounded=0;whiteSpace=wrap;html=1;container=0;strokeColor=none;" vertex="1" parent="1">
          <mxGeometry x="605" y="286" width="20" height="20" as="geometry" />
        </mxCell>
        <mxCell id="Vg8Ethz-sG3YUk_RrEdB-6" value="&lt;font style=&quot;font-size: 8px;&quot;&gt;Failed Device&lt;/font&gt;" style="rounded=1;whiteSpace=wrap;html=1;verticalAlign=top;dashed=1;strokeColor=#b85450;fillColor=#f8cecc;" vertex="1" parent="1">
          <mxGeometry x="540" y="280" width="60" height="40" as="geometry" />
        </mxCell>
        <mxCell id="Vg8Ethz-sG3YUk_RrEdB-7" value="$$\mathcal{F}_{\text{Conv}}$$" style="rounded=1;whiteSpace=wrap;html=1;fillColor=#dae8fc;strokeColor=#6c8ebf;" vertex="1" parent="1">
          <mxGeometry x="540" y="304" width="60" height="16" as="geometry" />
        </mxCell>
        <mxCell id="Vg8Ethz-sG3YUk_RrEdB-17" value="" style="shape=umlDestroy;whiteSpace=wrap;html=1;strokeWidth=3;targetShapes=umlLifeline;fillColor=#f8cecc;strokeColor=#b85450;" vertex="1" parent="1">
          <mxGeometry x="315" y="342" width="10" height="10" as="geometry" />
        </mxCell>
        <mxCell id="Vg8Ethz-sG3YUk_RrEdB-11" value="$$Y_{k+r}$$" style="rounded=0;whiteSpace=wrap;html=1;fillColor=#dae8fc;strokeColor=#6c8ebf;" vertex="1" parent="1">
          <mxGeometry x="645" y="365" width="30" height="20" as="geometry" />
        </mxCell>
        <mxCell id="Vg8Ethz-sG3YUk_RrEdB-10" value="&lt;b&gt;&lt;font style=&quot;font-size: 14px;&quot;&gt;,...,&lt;/font&gt;&lt;/b&gt;" style="rounded=0;whiteSpace=wrap;html=1;strokeColor=none;fillColor=#f5f5f5;fontColor=#333333;container=0;" vertex="1" parent="1">
          <mxGeometry x="605" y="365" width="20" height="20" as="geometry" />
        </mxCell>
        <mxCell id="mxhsJ3KRXKB8JYVtl0XZ-93" value="&lt;b&gt;&lt;font style=&quot;font-size: 14px;&quot;&gt;,...,&lt;/font&gt;&lt;/b&gt;" style="rounded=0;whiteSpace=wrap;html=1;strokeColor=none;fillColor=#f5f5f5;fontColor=#333333;container=0;" parent="1" vertex="1">
          <mxGeometry x="355" y="365" width="20" height="20" as="geometry" />
        </mxCell>
        <mxCell id="mxhsJ3KRXKB8JYVtl0XZ-28" value="$$Y_1$$" style="rounded=0;whiteSpace=wrap;html=1;fillColor=#dae8fc;strokeColor=#6c8ebf;" parent="1" vertex="1">
          <mxGeometry x="215" y="365" width="30" height="20" as="geometry" />
        </mxCell>
        <mxCell id="mxhsJ3KRXKB8JYVtl0XZ-90" value="$$Y_k$$" style="rounded=0;whiteSpace=wrap;html=1;fillColor=#dae8fc;strokeColor=#6c8ebf;" parent="1" vertex="1">
          <mxGeometry x="395" y="365" width="30" height="20" as="geometry" />
        </mxCell>
        <mxCell id="mxhsJ3KRXKB8JYVtl0XZ-94" value="&lt;b&gt;&lt;font style=&quot;font-size: 14px;&quot;&gt;,...,&lt;/font&gt;&lt;/b&gt;" style="rounded=0;whiteSpace=wrap;html=1;strokeColor=none;fillColor=#f5f5f5;fontColor=#333333;container=0;" parent="1" vertex="1">
          <mxGeometry x="514" y="360" width="20" height="20" as="geometry" />
        </mxCell>
        <mxCell id="mxhsJ3KRXKB8JYVtl0XZ-91" value="$$Y_{k+1}$$" style="rounded=0;whiteSpace=wrap;html=1;fillColor=#dae8fc;strokeColor=#6c8ebf;" parent="1" vertex="1">
          <mxGeometry x="465" y="365" width="30" height="20" as="geometry" />
        </mxCell>
        <mxCell id="mxhsJ3KRXKB8JYVtl0XZ-92" value="$$Y_{fail}$$" style="rounded=0;whiteSpace=wrap;html=1;fillColor=#f8cecc;strokeColor=#b85450;" parent="1" vertex="1">
          <mxGeometry x="555" y="365" width="30" height="20" as="geometry" />
        </mxCell>
        <mxCell id="Vg8Ethz-sG3YUk_RrEdB-9" value="&lt;b&gt;&lt;font style=&quot;font-size: 14px;&quot;&gt;,...,&lt;/font&gt;&lt;/b&gt;" style="rounded=0;whiteSpace=wrap;html=1;strokeColor=none;fillColor=#f5f5f5;fontColor=#333333;container=0;" vertex="1" parent="1">
          <mxGeometry x="264" y="365" width="20" height="20" as="geometry" />
        </mxCell>
        <mxCell id="Vg8Ethz-sG3YUk_RrEdB-18" value="$$Y_{fail}$$" style="rounded=0;whiteSpace=wrap;html=1;fillColor=#f8cecc;strokeColor=#b85450;" vertex="1" parent="1">
          <mxGeometry x="305" y="365" width="30" height="20" as="geometry" />
        </mxCell>
        <mxCell id="Vg8Ethz-sG3YUk_RrEdB-23" value="" style="endArrow=classic;html=1;rounded=0;fillColor=#f8cecc;strokeColor=#b85450;" edge="1" parent="1" source="Vg8Ethz-sG3YUk_RrEdB-3">
          <mxGeometry width="50" height="50" relative="1" as="geometry">
            <mxPoint x="350" y="370" as="sourcePoint" />
            <mxPoint x="320" y="340" as="targetPoint" />
          </mxGeometry>
        </mxCell>
        <mxCell id="Vg8Ethz-sG3YUk_RrEdB-24" value="" style="shape=umlDestroy;whiteSpace=wrap;html=1;strokeWidth=3;targetShapes=umlLifeline;fillColor=#f8cecc;strokeColor=#b85450;" vertex="1" parent="1">
          <mxGeometry x="565" y="342" width="10" height="10" as="geometry" />
        </mxCell>
        <mxCell id="Vg8Ethz-sG3YUk_RrEdB-25" value="" style="endArrow=classic;html=1;rounded=0;fillColor=#f8cecc;strokeColor=#b85450;" edge="1" parent="1" source="Vg8Ethz-sG3YUk_RrEdB-7">
          <mxGeometry width="50" height="50" relative="1" as="geometry">
            <mxPoint x="569.89" y="320" as="sourcePoint" />
            <mxPoint x="569.89" y="340" as="targetPoint" />
          </mxGeometry>
        </mxCell>
      </root>
    </mxGraphModel>
  </diagram>
</mxfile>
